<?xml version="1.0" encoding="utf-8" standalone="no"?>
<!DOCTYPE svg PUBLIC "-//W3C//DTD SVG 1.1//EN"
  "http://www.w3.org/Graphics/SVG/1.1/DTD/svg11.dtd">
<svg xmlns:xlink="http://www.w3.org/1999/xlink" width="239.047469pt" height="196.649156pt" viewBox="0 0 239.047469 196.649156" xmlns="http://www.w3.org/2000/svg" version="1.1">
 <defs>
  <style type="text/css">*{stroke-linejoin: round; stroke-linecap: butt}</style>
 </defs>
 <g id="figure_1">
  <g id="patch_1">
   <path d="M 0 196.649156 
L 239.047469 196.649156 
L 239.047469 0 
L 0 0 
z
" style="fill: #ffffff"/>
  </g>
  <g id="axes_1">
   <g id="patch_2">
    <path d="M 33.595469 168.75 
L 225.403469 168.75 
L 225.403469 23.598 
L 33.595469 23.598 
z
" style="fill: #ffffff"/>
   </g>
   <g id="matplotlib.axis_1">
    <g id="xtick_1">
     <g id="line2d_1">
      <defs>
       <path id="m9296871bb2" d="M 0 0 
L 0 3 
" style="stroke: #1a1a1a; stroke-width: 0.9"/>
      </defs>
      <g>
       <use xlink:href="#m9296871bb2" x="65.563469" y="168.75" style="fill: #1a1a1a; stroke: #1a1a1a; stroke-width: 0.9"/>
      </g>
     </g>
     <g id="text_1">
      <text style="fill: #1a1a1a; font: 8.5px 'Liberation Sans', 'Arial', 'Helvetica', 'DejaVu Sans', sans-serif" transform="translate(47.844289 181.409844)">Antes del</text>
      <text style="fill: #1a1a1a; font: 8.5px 'Liberation Sans', 'Arial', 'Helvetica', 'DejaVu Sans', sans-serif" transform="translate(43.356555 190.565406)">tema nuevo</text>
     </g>
    </g>
    <g id="xtick_2">
     <g id="line2d_2">
      <g>
       <use xlink:href="#m9296871bb2" x="129.499469" y="168.75" style="fill: #1a1a1a; stroke: #1a1a1a; stroke-width: 0.9"/>
      </g>
     </g>
     <g id="text_2">
      <text style="fill: #1a1a1a; font: 8.5px 'Liberation Sans', 'Arial', 'Helvetica', 'DejaVu Sans', sans-serif; text-anchor: middle" x="129.499469" y="181.409844" transform="rotate(-0 129.499469 181.409844)">Tema nuevo</text>
     </g>
    </g>
    <g id="xtick_3">
     <g id="line2d_3">
      <g>
       <use xlink:href="#m9296871bb2" x="193.435469" y="168.75" style="fill: #1a1a1a; stroke: #1a1a1a; stroke-width: 0.9"/>
      </g>
     </g>
     <g id="text_3">
      <text style="fill: #1a1a1a; font: 8.5px 'Liberation Sans', 'Arial', 'Helvetica', 'DejaVu Sans', sans-serif" transform="translate(180.607109 181.409844)">Tras el</text>
      <text style="fill: #1a1a1a; font: 8.5px 'Liberation Sans', 'Arial', 'Helvetica', 'DejaVu Sans', sans-serif" transform="translate(177.845938 190.565406)">refuerzo</text>
     </g>
    </g>
   </g>
   <g id="matplotlib.axis_2">
    <g id="ytick_1">
     <g id="line2d_4">
      <defs>
       <path id="m50137bdd6f" d="M 0 0 
L -3 0 
" style="stroke: #1a1a1a; stroke-width: 0.9"/>
      </defs>
      <g>
       <use xlink:href="#m50137bdd6f" x="33.595469" y="168.75" style="fill: #1a1a1a; stroke: #1a1a1a; stroke-width: 0.9"/>
      </g>
     </g>
     <g id="text_4">
      <text style="fill: #1a1a1a; font: 8.5px 'Liberation Sans', 'Arial', 'Helvetica', 'DejaVu Sans', sans-serif; text-anchor: end" x="27.095469" y="171.829922" transform="rotate(-0 27.095469 171.829922)">30</text>
     </g>
    </g>
    <g id="ytick_2">
     <g id="line2d_5">
      <g>
       <use xlink:href="#m50137bdd6f" x="33.595469" y="115.967455" style="fill: #1a1a1a; stroke: #1a1a1a; stroke-width: 0.9"/>
      </g>
     </g>
     <g id="text_5">
      <text style="fill: #1a1a1a; font: 8.5px 'Liberation Sans', 'Arial', 'Helvetica', 'DejaVu Sans', sans-serif; text-anchor: end" x="27.095469" y="119.047376" transform="rotate(-0 27.095469 119.047376)">50</text>
     </g>
    </g>
    <g id="ytick_3">
     <g id="line2d_6">
      <g>
       <use xlink:href="#m50137bdd6f" x="33.595469" y="63.184909" style="fill: #1a1a1a; stroke: #1a1a1a; stroke-width: 0.9"/>
      </g>
     </g>
     <g id="text_6">
      <text style="fill: #1a1a1a; font: 8.5px 'Liberation Sans', 'Arial', 'Helvetica', 'DejaVu Sans', sans-serif; text-anchor: end" x="27.095469" y="66.264831" transform="rotate(-0 27.095469 66.264831)">70</text>
     </g>
    </g>
    <g id="text_7">
     <text style="fill: #1a1a1a; font: 10px 'Liberation Sans', 'Arial', 'Helvetica', 'DejaVu Sans', sans-serif; text-anchor: middle" x="11.566875" y="96.174" transform="rotate(-90 11.566875 96.174)">Logro del curso (% de acierto)</text>
    </g>
   </g>
   <g id="patch_3">
    <path d="M 33.595469 168.75 
L 33.595469 23.598 
" style="fill: none; stroke: #1a1a1a; stroke-width: 0.9; stroke-linejoin: miter; stroke-linecap: square"/>
   </g>
   <g id="patch_4">
    <path d="M 33.595469 168.75 
L 225.403469 168.75 
" style="fill: none; stroke: #1a1a1a; stroke-width: 0.9; stroke-linejoin: miter; stroke-linecap: square"/>
   </g>
   <g id="LineCollection_1">
    <path d="M 65.563469 68.463164 
L 65.563469 52.6284 
" clip-path="url(#p4060b100ea)" style="fill: none; stroke: #1a1a1a; stroke-width: 1.3"/>
   </g>
   <g id="line2d_7">
    <defs>
     <path id="m8ba4eac019" d="M 4 0 
L -4 -0 
" style="stroke: #1a1a1a; stroke-width: 1.3"/>
    </defs>
    <g clip-path="url(#p4060b100ea)">
     <use xlink:href="#m8ba4eac019" x="65.563469" y="68.463164" style="fill: #1a1a1a; stroke: #1a1a1a; stroke-width: 1.3"/>
    </g>
   </g>
   <g id="line2d_8">
    <g clip-path="url(#p4060b100ea)">
     <use xlink:href="#m8ba4eac019" x="65.563469" y="52.6284" style="fill: #1a1a1a; stroke: #1a1a1a; stroke-width: 1.3"/>
    </g>
   </g>
   <g id="text_8">
    <text style="fill: #1a1a1a; font: 10px 'Liberation Sans', 'Arial', 'Helvetica', 'DejaVu Sans', sans-serif; text-anchor: middle" x="65.563469" y="44.74732" transform="rotate(-0 65.563469 44.74732)">a</text>
   </g>
   <g id="LineCollection_2">
    <path d="M 129.499469 131.802218 
L 129.499469 110.6892 
" clip-path="url(#p4060b100ea)" style="fill: none; stroke: #900008; stroke-width: 1.3"/>
   </g>
   <g id="line2d_9">
    <defs>
     <path id="mc77934f74c" d="M 4 0 
L -4 -0 
" style="stroke: #900008; stroke-width: 1.3"/>
    </defs>
    <g clip-path="url(#p4060b100ea)">
     <use xlink:href="#mc77934f74c" x="129.499469" y="131.802218" style="fill: #900008; stroke: #900008; stroke-width: 1.3"/>
    </g>
   </g>
   <g id="line2d_10">
    <g clip-path="url(#p4060b100ea)">
     <use xlink:href="#mc77934f74c" x="129.499469" y="110.6892" style="fill: #900008; stroke: #900008; stroke-width: 1.3"/>
    </g>
   </g>
   <g id="text_9">
    <text style="fill: #1a1a1a; font: 10px 'Liberation Sans', 'Arial', 'Helvetica', 'DejaVu Sans', sans-serif; text-anchor: middle" x="129.499469" y="102.80812" transform="rotate(-0 129.499469 102.80812)">b</text>
   </g>
   <g id="LineCollection_3">
    <path d="M 193.435469 76.380545 
L 193.435469 60.545782 
" clip-path="url(#p4060b100ea)" style="fill: none; stroke: #1a1a1a; stroke-width: 1.3"/>
   </g>
   <g id="line2d_11">
    <g clip-path="url(#p4060b100ea)">
     <use xlink:href="#m8ba4eac019" x="193.435469" y="76.380545" style="fill: #1a1a1a; stroke: #1a1a1a; stroke-width: 1.3"/>
    </g>
   </g>
   <g id="line2d_12">
    <g clip-path="url(#p4060b100ea)">
     <use xlink:href="#m8ba4eac019" x="193.435469" y="60.545782" style="fill: #1a1a1a; stroke: #1a1a1a; stroke-width: 1.3"/>
    </g>
   </g>
   <g id="text_10">
    <text style="fill: #1a1a1a; font: 10px 'Liberation Sans', 'Arial', 'Helvetica', 'DejaVu Sans', sans-serif; text-anchor: middle" x="193.435469" y="52.664702" transform="rotate(-0 193.435469 52.664702)">a</text>
   </g>
   <g id="line2d_13">
    <defs>
     <path id="m38defa22a6" d="M 0 3.5 
C 0.928211 3.5 1.81853 3.131218 2.474874 2.474874 
C 3.131218 1.81853 3.5 0.928211 3.5 0 
C 3.5 -0.928211 3.131218 -1.81853 2.474874 -2.474874 
C 1.81853 -3.131218 0.928211 -3.5 0 -3.5 
C -0.928211 -3.5 -1.81853 -3.131218 -2.474874 -2.474874 
C -3.131218 -1.81853 -3.5 -0.928211 -3.5 0 
C -3.5 0.928211 -3.131218 1.81853 -2.474874 2.474874 
C -1.81853 3.131218 -0.928211 3.5 0 3.5 
z
" style="stroke: #1a1a1a"/>
    </defs>
    <g clip-path="url(#p4060b100ea)">
     <use xlink:href="#m38defa22a6" x="65.563469" y="60.545782" style="fill: #1a1a1a; stroke: #1a1a1a"/>
    </g>
   </g>
   <g id="line2d_14">
    <defs>
     <path id="m160cdc4200" d="M 0 3.5 
C 0.928211 3.5 1.81853 3.131218 2.474874 2.474874 
C 3.131218 1.81853 3.5 0.928211 3.5 0 
C 3.5 -0.928211 3.131218 -1.81853 2.474874 -2.474874 
C 1.81853 -3.131218 0.928211 -3.5 0 -3.5 
C -0.928211 -3.5 -1.81853 -3.131218 -2.474874 -2.474874 
C -3.131218 -1.81853 -3.5 -0.928211 -3.5 0 
C -3.5 0.928211 -3.131218 1.81853 -2.474874 2.474874 
C -1.81853 3.131218 -0.928211 3.5 0 3.5 
z
" style="stroke: #900008"/>
    </defs>
    <g clip-path="url(#p4060b100ea)">
     <use xlink:href="#m160cdc4200" x="129.499469" y="121.245709" style="fill: #900008; stroke: #900008"/>
    </g>
   </g>
   <g id="line2d_15">
    <g clip-path="url(#p4060b100ea)">
     <use xlink:href="#m38defa22a6" x="193.435469" y="68.463164" style="fill: #1a1a1a; stroke: #1a1a1a"/>
    </g>
   </g>
  </g>
  <g id="text_11">
   <text style="fill: #8a8a8a; font: italic 7.5px 'Liberation Sans', 'Arial', 'Helvetica', 'DejaVu Sans', sans-serif; text-anchor: end" x="234.727469" y="9.755156" transform="rotate(-0 234.727469 9.755156)">Datos simulados</text>
  </g>
 </g>
 <defs>
  <clipPath id="p4060b100ea">
   <rect x="33.595469" y="23.598" width="191.808" height="145.152"/>
  </clipPath>
 </defs>
</svg>
